<?xml version="1.0" standalone="no"?>
<!DOCTYPE svg PUBLIC "-//W3C//DTD SVG 1.1//EN" "http://www.w3.org/Graphics/SVG/1.1/DTD/svg11.dtd" >
<svg xmlns="http://www.w3.org/2000/svg">
<metadata>Generated by IcoMoon</metadata>
<defs>
<font id="ShareUI-IconFont" horiz-adv-x="1024">
<font-face units-per-em="1024" ascent="960" descent="-64" />
<missing-glyph horiz-adv-x="1024" />
<glyph unicode="&#x20;" horiz-adv-x="512" d="" />
<glyph unicode="&#xe900;" glyph-name="share_edu_hjbm" d="M271.6 847.2h-137c-18.2 0-32.4-17.8-32.4-40.4v-726.4c0-22.6 14.2-40.4 32.4-40.4h137c18.2 0 32.4 17.8 32.4 40.4v726.4c0 22.6-14.2 40.4-32.4 40.4zM243.8 155v-49.6h-81.4v49.6h81.4zM243.8 376.6v-49.6h-81.4v49.6h81.4zM243.8 488v-49.6h-81.4v49.6h81.4zM243.8 787v-231.2h-81.4v231.2h81.4zM931.4 124l-191.6 700.6c-5 18.4-19.4 31.4-34.8 31.4-2.4 0-4.8-0.4-7-1l-132.2-36.2c-0.4-0.2-0.8-0.2-1.2-0.4-4 16.8-16.2 28.6-31 28.6h-137c-18.2 0-32.4-17.8-32.4-40.4v-726.4c0-22.6 14.2-40.4 32.4-40.4h137c18.2 0 32.4 17.8 32.4 40.4v615.4l170.8-624.8c5-18.4 19.4-31.4 34.8-31.4 2.4 0 4.8 0.4 7.2 1l132.2 36.2c17.2 4.6 26.4 25.6 20.4 47.4zM748 566.6l-78.6-21.4-61 223 78.6 21.4 61-223zM779 453.4l-78.6-21.4-13 47.8 78.6 21.4 13-47.8zM808.4 345.8l-78.6-21.4-13 47.8 78.6 21.4 13-47.8zM866.6 132.2l-78.6-21.4-13 47.8 78.6 21.4 13-47.8zM505.6 155v-49.6h-81.4v49.6h81.4zM505.6 376.6v-49.6h-81.4v49.6h81.4zM505.6 488v-49.6h-81.4v49.6h81.4zM505.6 787v-231.2h-81.4v231.2h81.4z" />
<glyph unicode="&#xe901;" glyph-name="share_edu_jfrx" d="M429.2 858h-278.4c-27 0-48.8-21.8-48.8-48.8v-278.4c0-27 21.8-48.8 48.8-48.8h278.4c27 0 48.8 21.8 48.8 48.8v278.4c0 27-21.8 48.8-48.8 48.8zM409.8 648.2c0-11.2-9-20.2-20.2-20.2h-57.6v-57.6c0-11.2-9-20.2-20.2-20.2h-49.6c-11.2 0-20.2 9-20.2 20.2v57.6h-57.6c-11.2 0-20.2 9-20.2 20.2v49.6c0 11.2 9 20.2 20.2 20.2h57.6v57.6c0 11.2 9 20.2 20.2 20.2h49.6c11.2 0 20.2-9 20.2-20.2v-57.6h57.6c11.2 0 20.2-9 20.2-20.2v-49.6zM429.2 414h-278.4c-27 0-48.8-21.8-48.8-48.8v-278.4c0-27 21.8-48.8 48.8-48.8h278.4c27 0 48.8 21.8 48.8 48.8v278.4c0 27-21.8 48.8-48.8 48.8zM398.4 179.6c8.4-8.4 8.4-22 0-30.4l-37.4-37.4c-8.4-8.4-22-8.4-30.4 0l-43.4 43.4-44.4-44.4c-7.8-7.8-20.6-7.8-28.6 0l-39.6 39.2c-7.8 7.8-7.8 20.6 0 28.6l44.4 44.4-43.4 43.4c-8.4 8.4-8.4 22 0 30.4l37.4 37.4c8.4 8.4 22 8.4 30.4 0l43.4-43.4 44.4 44.4c7.8 7.8 20.6 7.8 28.6 0l39.4-39.4c7.8-7.8 7.8-20.6 0-28.6l-44.4-44.4 43.6-43.2zM873.2 858h-278.4c-27 0-48.8-21.8-48.8-48.8v-278.4c0-27 21.8-48.8 48.8-48.8h278.4c27 0 48.8 21.8 48.8 48.8v278.4c0 27-21.8 48.8-48.8 48.8zM862 646.8c0-11.4-9.2-20.6-20.6-20.6h-208.8c-11.4 0-20.6 9.2-20.6 20.6v50.6c0 11.4 9.2 20.6 20.6 20.6h209c11.4 0 20.6-9.2 20.6-20.6v-50.6zM873.2 414h-278.4c-27 0-48.8-21.8-48.8-48.8v-278.4c0-27 21.8-48.8 48.8-48.8h278.4c27 0 48.8 21.8 48.8 48.8v278.4c0 27-21.8 48.8-48.8 48.8zM862 131.6c0-10.8-8.8-19.6-19.6-19.6h-210.8c-10.8 0-19.6 8.8-19.6 19.6v44.2c0 10.8 8.8 19.6 19.6 19.6h210.8c10.8 0 19.6-8.8 19.6-19.6v-44.2zM862 272.2c0-10.8-8.8-19.6-19.6-19.6h-210.8c-10.8 0-19.6 8.8-19.6 19.6v44.2c0 10.8 8.8 19.6 19.6 19.6h210.8c10.8 0 19.6-8.8 19.6-19.6v-44.2z" />
<glyph unicode="&#xe902;" glyph-name="share_edu_jsgl" d="M253.2 391c28 0 53.8 0.2 78 0.2 22.8-2.2 41 3.4 53.4 18.2l97.8-205.4 23.4 129.2-16.4 7.6 0.6 18.4h70.6l0.6-18.4-16.6-7.6 22.4-123.6 83.6 192c12.6-6.2 29.2-8 48.8-6.6 22.6 0.2 46.6 0.2 72.4 0.2 66.6-63 109.4-211.6 98.8-308.4-20.6-14.4-56-26.2-100.4-35.2l-14 46.8-30.8-54.8c-129.8-19.6-308.8-21-434.6-2.6l-32.4 57.4-14.8-49.2c-43.4 9.4-76.4 21.8-92.4 37.4 1.6 85.2 17.4 230.6 102 304.4v0zM361.4 544.4c-11.2 5.6-19.6 15.4-25.2 29-6 14.6-8.8 33.8-8.6 56.8l0.2 7.2 6 4c1.2 0.8 2.4 1.6 3.4 2.2-13.2 96.6-2.2 141.2 39.8 175.6 65.4 53.6 189.4 54 255.6 5.4 45-33 61-91.4 49-179 2.4-1.2 4.6-2.6 6.8-4.2l6-4 0.2-7.2c0.4-22.4-2.4-41.4-8.2-55.8-5.4-13.4-13.4-23.4-24.2-29.2-17.2-56.8-77.2-117.6-137.8-123.6-10.6-1-22.8-0.8-33.4 3-66.2 23.4-108.4 50.8-129.6 119.8z" />
<glyph unicode="&#xe903;" glyph-name="share_edu_szsh" d="M818 679.2h-23.6c-0.2 27.4-22.6 49.6-50 49.6h-25.6v29.4c0 27.6-22.4 50-50 50h-25.6v29.4c0 27.6-22.4 50-49.8 50h-290l-147.4-147.6v-483c0-27.6 22.4-50 50-50h40.4v-14.8c0-27.6 22.4-50 50-50h40.4v-14.8c0-27.6 22.4-50 50-50h23.2v-14.4c0-28 22.4-51 50-51h345.4c34.6 0 62.8 28.8 62.8 64v552.2c-0.2 28.2-22.6 51-50.2 51zM347.4 657.6l128 168.8c6.6 7.4 15.2 11.6 24.2 11.6 16.4 0 29.8-12.4 29.8-27.8v-148.2h12.8c15 0 26.8-11.8 26.8-26.6 0-14.2-12-25.8-26.8-25.8h-12.8v-20.6c0-14.6-12-25.8-27.2-25.8-15 0-26.8 11.4-26.8 25.8v20.6h-106.6c-14 0-28.8 11.2-28.8 27.8 0 4.6 1.2 12.2 7.4 20.2zM534.4 471.8h-265.8c-14.4 0-26 12.2-26 27.2s11.6 27.2 26 27.2h265.6c14.4 0 26-12.2 26-27.2s-11.6-27.2-25.8-27.2zM560.4 416.8c0-15-11.6-27.2-26-27.2h-265.8c-14.4 0-26 12.2-26 27.2s11.6 27.2 26 27.2h265.6c14.4 0 26.2-12.2 26.2-27.2zM314 837v-72.8c0-19.8-16-35.6-35.6-35.6h-72.8l108.4 108.4zM242.8 334.6c0 15 11.6 27.2 26 27.2h265.6c14.4 0 26-12.2 26-27.2s-11.6-27.2-26-27.2h-265.8c-14.2 0-25.8 12.2-25.8 27.2zM296.2 185.4c-3.8 0-6.8 3-6.8 6.8v14.8h304.2c27.6 0 49.8 22.4 49.8 50v508h25.6c3.8 0 6.8-3 6.8-6.8v-553.2c0-10.8-8.8-19.6-19.6-19.6h-360zM386.4 120.6c-3.8 0-6.8 3.2-6.8 6.8v14.8h276.6c34.6 0 62.8 28.2 62.8 62.8v480.6h25.6c3.8 0 6.8-3 6.8-6.8v-538.4c0-10.8-8.8-19.6-19.6-19.6h-345.4zM824.8 76.4c0-11.2-8.8-20.4-19.6-20.4h-345.2c-3.8 0-6.8 3.4-6.8 7.2v14.4h278.8c34.6 0 62.8 28.2 62.8 62.8v495h23.2c3.8 0 6.8-3.4 6.8-7.2v-551.8zM475.4 661.8v76.4l-58-76.6c7.6 0 14.8 0 22.2 0.2 11.8-0.2 23.6 0 35.8 0z" />
<glyph unicode="&#xe904;" glyph-name="share_edu_whhkc" d="M780.2 811.8c-15.6 29.8 4.6 40.4 21.2 44.2-1.4 2-4.6 2.2-4.6 2.2h-574.6c0 0-62.8 0-38.4-46.2 22.2-46 84.8-46 84.8-46h574.8c0 0 3.2 0 2.4 2.2-20.4 3.4-51.2 14-65.6 43.6zM573 377c34.2 42.6 56.6 87.6 67 135.4h-143.2c13.4-49.8 38.8-94.8 76.2-135.4zM838.2 724.6h-537.2c-4.2 0-7.6-5-7.6-11.2v-664c0-6.2 3.4-11.4 7.6-11.4h537.2c4.2 0 7.6 5 7.6 11.4v664c0 6.2-3.4 11.2-7.6 11.2zM727 293c13.4-4.2 18.2-13.4 14-28-5.2-11.4-15.6-15-31.2-10.8-50.8 15.6-96.4 36.4-137 62.2-38.4-29-92.8-51.4-163.4-67-14.6-2-23.8 3.2-28 15.6-2 14.6 3.6 23.4 17.2 26.4 53 14.6 97.6 33.8 133.8 57.6-39.4 43.6-67.4 98-84 163.4h-48.2c-10.4 1-16 8.2-17.2 21.8 1 13.4 6.8 20.8 17.2 21.8h149.4c-5.2 13.4-8.4 25-9.4 34.2-2 11.4 2.6 19.2 14 23.4 13.4 3.2 23.4 0 29.6-9.4 2-6.2 5.2-15.6 9.4-28 3.2-9.4 5.2-16 6.2-20.2h124.6c13.4-1 20.8-8.4 21.8-21.8 0-13.4-6.8-20.8-20.2-21.8-18.6 0-29 0-31.2 0-4.2 0-6.2-0.6-6.2-1.6-14.6-64.4-41-117.8-79.4-160.4 31.2-21.6 70.6-40.8 118.2-57.4zM178.2 765.6v-92.4c9.4-8.6 23.6-18.8 42.2-24.2 10.4-3 16.4-14 13.4-24.4-2.6-8.6-10.4-14.2-18.8-14.2-1.8 0-3.8 0.2-5.6 0.8-11.6 3.4-22 8.2-31 13.4v-37.8c9.4-8.6 23.6-18.8 42.2-24.2 10.4-3 16.4-14 13.4-24.4-2.6-8.6-10.4-14.2-18.8-14.2-1.8 0-3.8 0.2-5.6 0.8-11.6 3.4-22 8.2-31 13.4v-37.8c9.4-8.6 23.6-18.8 42.2-24.2 10.4-3 16.4-14 13.4-24.4-2.6-8.6-10.4-14.2-18.8-14.2-1.8 0-3.8 0.2-5.6 0.8-11.6 3.4-22 8.2-31 13.4v-37.8c9.4-8.6 23.6-18.8 42.2-24.2 10.4-3 16.4-14 13.4-24.4-2.6-8.6-10.4-14.2-18.8-14.2-1.8 0-3.8 0.2-5.6 0.8-11.6 3.4-22 8.2-31 13.4v-276.2c-0.4-46 74.8-46 74.8-46v682c-49.8 1.8-75.6 40.4-75.6 40.4z" />
<glyph unicode="&#xe905;" glyph-name="share_edu_xscgl" d="M661.6 709.6c-3 0.2-6.8 1.2-10.4 3.4 0.6-5.6-0.4-12.2-3.2-19.6l-0.2-0.4c-12.6-28.8-27.8-55.4-45.2-79.4l0.8 0.8c9.6 9.6 18 19 24.8 27.6l0.4 0.4c11.2 12.4 25 14.4 38.8 5.8l0.8-0.6 0.6-0.8c10.2-11.6 10.4-24.8 0.2-37.4l-0.2-0.2c-6-7-14.6-16-26-27.4 5.6-4.4 10.6-9 15-13.4 7.2-6.6 11-12.6 12.6-18.2 2.6 5.8 5 12 7.2 18.2 10.2 31.6 15.2 79 14.6 141.2h-30.6zM856.8 858h-371.6c-36 0-65.2-29.2-65.2-65.2v-371.8c0-36 29.2-65.2 65.2-65.2h371.8c36 0 65.2 29.2 65.2 65.2v371.8c-0.2 36-29.4 65.2-65.4 65.2zM840.6 728.4v-124.8c0-74.4-5.6-120.4-17.4-140.6l-0.2-0.4c-11.6-17.4-38.8-23.4-82.8-18-17.2 2.4-27.4 12.2-28.6 27.4v1.2c1.2 16.4 11 26.2 27.4 27.4h0.6c8 0 16-0.6 24.2-1.4 5 0 7.8 0.6 9.2 1.2l0.8 0.2c2.4 2.6 10.8 19.2 10.8 119.6v86.4c0 1.8-0.2 2.8-0.4 3.4h-31.8c-3-78.8-9-130.2-17.8-157.2-10.4-40-35.2-75.8-73.8-106.4l-0.2-0.2c-21-15-37.4-8-47.4 0.4l-0.6 0.4-0.4 0.6c-5.4 6.6-7.6 13.2-6.6 20 1 7.8 6.2 15 15.4 21.6 12.2 9.2 22.8 19.6 31.6 31.2-7.2-2-15.2-0.4-23.6 4.4l-0.4 0.2c-2 1.4-7 5-26 21.4-0.6 0.6-1.2 1-1.6 1.4v-96.6c-1-8.6-6.2-19.4-25.2-22.6l-0.8-0.2h-0.8c-22 1.8-26.6 14-27.4 21.2v96.8c-19.8-18.2-35.6-14.2-46.2-6.4l-0.8 0.6c-5.2 5.2-7.8 11.2-7.8 17.8 0 9.6 5.4 19.8 16.8 31l0.4 0.4c28.2 24.6 51.8 55 70.6 90.2h-60.6c-8 0.8-21.2 5.4-21.2 28v0.6c1.6 22 15 26.6 22.8 27.4h29c-0.2 1.4-0.6 3.2-0.8 4.8-2 8-3.4 14.4-4.4 19.4l-0.2 0.8c-0.8 8.4 1.2 23.4 23.4 28.4l1 0.2c20.4 1.6 29-9.8 32.6-19.6 1.2-3.4 2.2-7.8 3.2-13v-0.2c0.8-5 2-11.8 3.4-20.8h8.8c10.8 0 19-1.8 25-5.8-0.4 2.6-0.8 5.6-0.8 9v0.6c1.6 22 15 26.6 22.8 27.4h136.2c15.2 0.6 26.4-2.8 33.4-10.4 5.6-6.8 8.2-16.2 7.2-28.4zM468.6 697.4l-162.8-144-11.2 49.4c-71.4-32.8-123.2-88.6-133.6-160.4l-21-4.4c-20.6 113.8 18.6 217.8 129.6 273.4l-10.6 46 209.6-60zM794.2 289.2l27.8-104-45.2 11.2c-56.8-108.8-160.2-145.8-272.4-123.6l4.4 20.6c71.2 9 127.2 59.2 160.8 129.4l-48.6 12 72.6 79.2 72.6 79.4 28-104.2zM460 322c-40.8 0-74 33.2-74 74v52h-230.8c-29.4 0-53.2-23.8-53.2-53.2v-303.6c0-29.4 23.8-53.2 53.2-53.2h303.6c29.4 0 53.2 23.8 53.2 53.2v230.8h-52zM210.2 156.8c-4.8-8.8-12.4-13.4-21.8-13.4-2.4 0-5 0.2-7.6 1h-0.2c-11.4 3.2-17.6 12-17.6 25 0 1.4 0 3.2 6 25v0.4c10.8 32.2 21.2 79 31.2 139 2 13.2 11 20.6 25.2 20.6h0.8c20.2-2.8 23.2-16.2 23.2-24v-0.8c-7.8-69.6-21-127.4-39-172.2l-0.2-0.6zM337 149.4c0-19.4-5.6-33.6-16.8-41.8-7.6-5.6-17.6-8.6-29.8-8.6-11 0-23.8 2.2-38.8 6.8-21 7-26.2 19.8-26.8 29.2v0.8c0.4 7.6 3 13.2 7.6 16.8 4.8 3.8 11.6 4.8 20 3.4l0.6-0.2c21.2-5.8 29-5.4 31.4-4.8v0 213.6c0.6 8.2 4.8 22.2 26 23.6h0.8c15.8-1 25-9.4 26-23.6v-215.2zM431.4 140.8l-0.8-0.2c-1.6-0.2-3.2-0.4-4.6-0.4-11.6 0-20.4 7-24.6 20v0.2c-1.6 5.4-5.2 19.4-11.6 44.4l-35.2 123c-3 15.2 3.6 25.8 18.8 29.8h0.4c14.2 3 24.8-3.4 29.8-18.4 19.4-57.6 35.2-114 46.8-167.6v-0.6c1.6-15.4-5-26.2-19-30.2z" />
<glyph unicode="&#xe906;" glyph-name="share_edu_xxgl" d="M767.6 193.2v375.4h6.8c11 0 20 9 20 19.8v1c0 11-9 19.8-16 19.8h-100.8c-15 0-24-9-24-19.8v-1c0-11 9-19.8 20-19.8h4.4v-375.4h-122.4v375.4h6.8c11 0 20 9 20 19.8v1c0 11-9 19.8-16 19.8h-100.8c-15 0-24-9-24-19.8v-1c0-11 9-19.8 20-19.8h4.4v-375.4h-122.6v375.4h6.8c11 0 20 9 20 19.8v1c0 11-9 19.8-16 19.8h-100.8c-15 0-24-9-24-19.8v-1c0-11 9-19.8 20-19.8h4.4v-375.4zM808 128v43c0 15-12 27-27 27h-538c-15 0-27-12-27-27v-43h-37c-15 0-27-12-27-27v-36c0-15 12-27 27-27h666c15 0 27 12 27 27v36c0 15-12 27-27 27h-37zM172.4 652h679c10.6 0 19.6 7 21.2 16.4s0.6 20.6-14.6 30c-15.4 9.4-339.4 207.6-339.4 207.6-4.2 1.2-8.6 1.2-12.8 0 0 0-322.2-196.2-339.6-207.6-17.4-11.2-16.2-20.6-14.6-30 1.4-9.4 10.4-16.4 20.8-16.4zM512 815c27.2 0 49.2-22 49.2-49.2s-22-49.2-49.2-49.2c-27.2 0-49.2 22-49.2 49.2 0 27 22 49.2 49.2 49.2z" />
<glyph unicode="&#xe907;" glyph-name="share_edu_ydgl" d="M263 857.6v-45.6c-26.2-2-59.8-19.6-77.4-37.2-19.6-19.4-31.6-46.4-31.6-76v-503.2c0-29.6 12-56.6 31.6-76 19.4-19.4 46.4-31.6 76-31.6h253.6v55.6h-243.6c-17 0-36.6 7-47.8 18.2s-14.2 16.8-14.2 33.8v493.2c0 17 7 32.6 18.2 43.8 9.4 9.2 21.6 15.6 35.2 17.6v-51.6h374.6v50.8c12-2.4 22.6-6.4 31-14.8 11.2-11.2 18.2-18.8 18.2-35.8v-310.6h55.6v310.6c0 29.6-12.2 56.6-31.6 76-16.6 16.6-48.6 33.8-73.2 36.8v46h-374.6zM832.8 347.2v0c11.2 0 21.2-4.6 28.6-11.8v0c7.4-7.4 12-17.6 12-28.8v-228c0-11.2-4.6-21.4-12-28.8s-17.6-12-28.8-12h-233.2c-11.2 0-21.4 4.6-28.8 12v0c-7.4 7.4-12 17.6-12 28.8v227.8c0 11.2 4.6 21.4 12 28.8s17.6 12 28.8 12h233.4zM396 615.4v-57.4h239.2v57.4h-239.2zM273.2 636h-11.2v-92h92v92h-80.8zM396 473.4v-57.4h239.2v57.4h-239.2zM273.2 494h-11.2v-92h92v92h-80.8zM396 331.4v-57.4h116v57.4h-116zM273.2 352h-11.2v-92h92v92h-80.8zM598.8 188.6l81.4-90.4c10-11.2 29.2-13.4 42.8-5.2 3.8 2.4 6.8 5.2 8.8 8.6l104.6 153.4c8.2 12 3 27.4-11.8 34-14.8 6.8-33.4 2.4-41.6-9.8l-81.8-120-53.2 59.2c-10 11.2-29.2 13.4-42.8 5.2s-16.4-24-6.4-35z" />
<glyph unicode="&#xe908;" glyph-name="share_edu_yeybm" d="M925.6 303.4l-80.8 175.2c-6.6 14.4-21.2 23.6-37 23.6h-156.6v89.8c0 0 0 0.2 0 0.4 0 0.6 0 1.2-0.2 1.8 0 0.2 0 0.2 0 0.4-0.2 0.6-0.4 1.2-0.6 2 0 0.2-0.2 0.4-0.2 0.6-0.2 0.4-0.4 0.8-0.6 1.2-0.2 0.2-0.2 0.4-0.4 0.6-0.2 0.4-0.6 0.8-1 1.2 0 0.2-0.2 0.2-0.2 0.2l-0.8-0.6 0.6 0.8-122 115.2c-2.4 2.2-5.2 4-8.2 5.4v28.4h117c12.8 0 23 10.4 23 23v62c0 12.8-10.4 23-23 23h-128.8c-6.6 0-11.8-5.2-11.8-11.8v-124.8c-3-1.4-5.8-3.2-8.2-5.4l-122.2-115.4c0-0.2-0.2-0.2-0.4-0.4-0.4-0.4-0.6-0.8-1-1.2-0.2-0.2-0.2-0.4-0.4-0.6-0.2-0.4-0.4-0.8-0.8-1.4 0-0.2-0.2-0.2-0.2-0.4-0.2-0.6-0.4-1.4-0.6-2 0-0.2 0-0.2 0-0.4 0-0.6-0.2-1.2-0.2-1.8v-90h-144.6c-15.8 0-30.4-9.2-37-23.6l-80.8-175.2c-3.4-7.4-2.8-16 1.6-23s12-11 20.2-11h49.4v-202c0-16.4 13.2-29.6 29.6-29.6h253.8v233h126v-232.6h246.6c16.4 0 29.6 13.2 29.6 29.6v202h49.4c8.2 0 15.8 4.2 20.2 11s5 15.4 1.6 22.8zM318.2 97.8c-39.2 0-70.8 31.8-70.8 70.8s31.8 70.8 70.8 70.8 70.8-31.8 70.8-70.8-31.6-70.8-70.8-70.8zM511.6 386c-48.6 0-88 39.4-88 88s39.4 88 88 88c48.6 0 88-39.4 88-88s-39.4-88-88-88zM711.4 97.8c-39.2 0-70.8 31.8-70.8 70.8s31.8 70.8 70.8 70.8c39.2 0 70.8-31.8 70.8-70.8s-31.6-70.8-70.8-70.8z" />
<glyph unicode="&#xe909;" glyph-name="share_edu_zsmd" d="M904 159l-50.8 57.6c-16.8 17.8-34.6 28.6-52.4 11.8v0l-36 38.2c47.4 62.2 72.4 136.6 74.6 211.4 2.6 93.8-30.4 188.6-99.8 262.2-69.6 73.6-162.2 112-256 114.8s-188.6-30.4-262.2-99.8c-73.6-69.4-112-162.2-114.8-256s30.4-188.6 99.8-262.2c69.4-73.6 162.2-112 256-114.8 83.6-2.4 168 23.6 237.4 78.4l33.6-35.6c-17.8-16.8-8.6-34.6 8.2-52.4l50.8-57.6c16.8-17.8 40.6-22.6 58.4-5.8l61.4 57.6c17.6 16.6 8.4 34.4-8.2 52.2zM676.2 273.4c-59.4-56-135.8-82.8-211.6-80.6-75.6 2.2-150.4 33.2-206.6 92.6-56 59.4-82.8 135.8-80.6 211.6 2.2 75.6 33.2 150.4 92.6 206.6 59.4 56 135.8 82.8 211.6 80.6 75.6-2.2 150.4-33.2 206.6-92.6 56-59.4 82.8-135.8 80.6-211.4-2.2-76-33.4-150.8-92.6-206.8zM668 678.4c-6.6 6.8-16.4 9.8-29.2 9.4h-205.8c-11.2-1-25.4-7-28.8-30.2v-1.2c1.6-25 15.6-31.4 27-32.2h53.2c-5.6-28-21.8-51-48.4-68.4-7.6-3.8-12-7-13.8-10.2-4.6-6-7-12.2-7.2-18.4-8.2 13.8-18.4 14.2-26.2 11.8-4-1-8.6-2.4-14.4-4.2v37.6h17.8c11.4 1 25.4 7 27 30.6v0.8c-1.6 25-14.6 31.4-25.2 32.2h-19.6v47.2c-1 11.4-7 25.4-30.6 27h-0.8c-25-1.6-31.4-15.6-32.2-27v-47.2h-17.8c-11.2-1-25.4-7.2-28.8-32v-0.8c1.6-25 15.6-31.4 27-32.2h19.6v-62.6l-33.2-14.2-0.6-0.4c-11-6.8-15.8-17.8-14.4-32.4l0.2-0.8c5-20.2 16.8-24.6 25.6-24.6 6 0 14 2.4 24.4 7.4v-80c0-1.4-0.2-2.2-0.6-2.4-0.6-0.4-2.6-0.8-7 0.2-4 1.2-7.2 2-10 2-17.8 0-27.4-10.4-27.4-29.2 0-21.2 16.6-34 49.2-37.8 4.2-0.6 8-0.8 11.8-0.8 14 0 24.8 3.6 32.6 10.8 10 9.4 14.4 24.4 13.2 45.2v117.6l31.8 15.8h0.2c7 4 14.6 11.2 14.2 24l0.2-0.2c9.2-11.8 21.8-16 36.4-12.2l0.6 0.2 0.4 0.2c42.8 22 73 64.8 89.6 127.2h67.2v-19.4c1-31-4.2-42.4-8.6-46.4-2.2-2-4.8-2.6-8.2-2.2h-0.8c-6.8 0-16 0.6-27.2 1.8-17.6 1.4-27.2-1-30.6-7.8-10.2-16.8-12-30.2-4.8-40 6.8-9.4 20.4-14.6 41.8-16 33.4-2.4 55.8 0 68.4 7.6 12.8 6.4 21.8 21.6 26.6 45 3.4 18.6 5.2 51.4 5.2 97.4 1 15.8-2 27.2-9 34.4zM664.6 453c0.6 14-2.4 24.6-9.2 31.2-6.2 6.2-15.2 9-27 8.4h-179.4c-12.6 0.6-22.4-2.4-29-8.8-7-6.6-10.6-17-10.6-30.8v-113.8c-0.6-12.6 2.2-22 8.4-28.2 5.4-5.4 13.2-8 23-8 1 0 2 0 3 0h181c14-0.6 24.6 2.6 31.4 9.8 6.8 7 9.6 17.8 8.4 31.8v108.4zM604.6 371.4c0.4-3.6-0.2-6.4-1.6-7.8-2-2-6-2.8-12-2.2h-107.8c-5.2-0.4-9 0.2-10.6 1.8-1.2 1.2-1.6 3.4-1.2 6.4v53c-0.4 2.8 0.2 5 1.2 6.2 1.4 1.6 4.6 2.4 9 2.4 1 0 2.2 0 3.4-0.2h109.6c3.6 0.4 6.2-0.2 7.8-1.6 2-2 2.8-6 2.2-12v-46z" />
<glyph unicode="&#xe90a;" glyph-name="share_com_clock" d="M512 38c-226.4 0-410 183.6-410 410s183.6 410 410 410 410-183.6 410-410-183.6-410-410-410zM512 762c-173.2 0-314-140.8-314-314s140.8-314 314-314 314 140.8 314 314c0 173.2-140.8 314-314 314zM564 401.2c0-12.2-9.4-21.6-21.6-21.6h-215.8c-12.2 0-21.6 9.4-21.6 21.6v43.2c0 12.2 9.4 21.6 21.6 21.6h151v237.4c0 12.2 9.4 21.6 21.6 21.6h43.2c12.2 0 21.6-9.4 21.6-21.6v-302.2z" />
<glyph unicode="&#xe90b;" glyph-name="share_com_correct" d="M512 38c-226.4 0-410 183.6-410 410s183.6 410 410 410 410-183.6 410-410-183.6-410-410-410zM777.8 559l-48.6 48c-6.4 6.4-15 10.2-24 10.2s-17.6-3.8-24-10.2l-217.8-217.2-120.6 120.6c-6.4 6.4-15 10.2-24 10.2s-17.6-3.8-24-10.2l-48.6-48c-6.4-6.4-9.6-15.4-9.6-24.6 0-9 3.2-17.6 9.6-24l193.2-193.2c6.4-6.4 15.4-10.2 24-10.2 9 0 18.2 3.8 24.6 10.2l289.8 289.8c6.4 6.4 9.6 15 9.6 24 0 9.2-3.2 18.2-9.6 24.6z" />
<glyph unicode="&#xe90c;" glyph-name="share_com_error" d="M512 38c-226.4 0-410 183.6-410 410s183.6 410 410 410 410-183.6 410-410-183.6-410-410-410zM705.2 351.4l-96.6 96.6 96.6 96.6c6.4 6.4 10.2 15 10.2 24s-3.8 18.2-10.2 24.6l-48 48c-6.4 6.4-15.4 10.2-24.6 10.2-9 0-17.6-3.8-24-10.2l-96.6-96.6-96.6 96.6c-6.4 6.4-15 10.2-24 10.2s-18.2-3.8-24.6-10.2l-48-48c-6.4-6.4-10.2-15.4-10.2-24.6 0-9 3.8-17.6 10.2-24l96.6-96.6-96.6-96.6c-6.4-6.4-10.2-15-10.2-24s3.8-18.2 10.2-24.6l48-48c6.4-6.4 15.4-10.2 24.6-10.2 9 0 17.6 3.8 24 10.2l96.6 96.6 96.6-96.6c6.4-6.4 15-10.2 24-10.2s18.2 3.8 24.6 10.2l48 48c6.4 6.4 10.2 15.4 10.2 24.6 0 9-3.8 17.6-10.2 24z" />
<glyph unicode="&#xe90d;" glyph-name="share_com_heart" d="M851.6 752.8v0c-93.8 93.8-245.8 93.8-339.6 0v0 0c-93.8 93.8-245.8 93.8-339.6 0v0c-93.8-93.8-93.8-245.8 0-339.6v0c0 0 0 0 0 0l339.6-339.6 339.6 339.6c93.8 93.8 93.8 246 0 339.6z" />
<glyph unicode="&#xe90e;" glyph-name="share_com_home" d="M934.4 428.2c-2.8-3.4-7.4-5.8-12-6.4-0.6 0-1.2 0-1.8 0-4.6 0-8.6 1.2-12 4l-396.6 330.6-396.6-330.6c-4-2.8-8.6-4.6-13.8-4-4.6 0.6-9.2 2.8-12 6.4l-35.6 42.4c-6.4 7.4-5.2 19.4 2.2 25.8l412 343.2c24 20 63 20 87 0l139.8-116.8v111.6c0 10.4 8 18.4 18.4 18.4h110c10.4 0 18.4-8 18.4-18.4v-233.8l125.4-104.2c7.4-6.4 8.6-18.4 2.2-25.8l-35-42.4zM842 74.6c0-20-16.6-36.6-36.6-36.6h-220v260.6h-146.6v-260.6h-220c-20 0-36.6 16.6-36.6 36.6v356.4c0 1.2 0.6 2.2 0.6 3.4l329.2 271.6 329.4-271.6c0.6-1.2 0.6-2.2 0.6-3.4v-356.4z" />
<glyph unicode="&#xe90f;" glyph-name="share_com_image" d="M965 172.2c0-44.2-36.2-80.2-80.2-80.2h-745.4c-44.2 0-80.2 36.2-80.2 80.2v548.8c0 44.2 36.2 80.2 80.2 80.2h745.4c44.2 0 80.2-36.2 80.2-80.2v-548.8zM157.8 721c-8.2 0-15.2-7.2-15.2-15.2v-518.4c0-8.2 7.2-15.2 15.2-15.2h708.4c8.2 0 15.2 7.2 15.2 15.2v518.4c0 8.2-7.2 15.2-15.2 15.2h-708.4zM305 474.4c-51 0-92.4 41.4-92.4 92.4s41.4 92.4 92.4 92.4 92.4-41.4 92.4-92.4-41.2-92.4-92.4-92.4zM807.6 241.8h-595v60.6l135.2 135.2 67.6-67.6 216.4 216.4 175.8-175.8v-168.8z" />
<glyph unicode="&#xe910;" glyph-name="share_com_mail" d="M966 173c0-44.4-36.4-81-81-81h-744.2c-44.4 0-80.8 36.4-80.8 81v550c0 44.6 36.4 81 80.8 81h744.4c44.4 0 81-36.4 81-81v-550zM869.8 723.4h-713.6c-8.2 0-15.6-9.2-15.6-17.4 0-55.2 27.6-89.6 71.2-124 65-51 130-102.2 194.4-153.6 25.6-20.8 72.2-65.4 106.2-65.4h0.8c34 0 80.4 44.6 106.2 65.4 64.4 51.4 129.4 102.8 194.4 153.6 31.6 24.8 71.2 66.8 71.2 108 0.4 12 3.2 33.4-15.2 33.4zM885.4 548.8c-10.2-11.6-21.4-22.4-33.4-32-69.4-53.4-139.2-107.6-206.6-163.8-36.4-30.6-81.4-67.8-131.8-67.8h-0.8c-50.4 0-95.6 37.4-131.8 67.8-67.4 56.2-137.2 110.6-206.6 163.8-12.2 9.6-23.2 20.4-33.4 32v-360.6c0-8.2 7.2-15.6 15.6-15.6h713.6c8.2 0 15.6 7.2 15.6 15.6v360.6z" />
<glyph unicode="&#xe911;" glyph-name="share_com_notice" d="M856.2 135.2h-219c0-69-56.2-125.2-125.2-125.2s-125.2 56.2-125.2 125.2h-219c-34.2 0-62.6 28.4-62.6 62.6 72.4 61.2 156.4 170.6 156.4 406.8 0 93.8 77.8 196.6 207.2 215.6-2.4 5.8-4 12.2-4 19 0 26 21 47 47 47s47-21 47-47c0-6.8-1.4-13.2-4-19 129.6-19 207.2-121.8 207.2-215.6 0-236.2 84-345.6 156.4-406.8 0.4-34.4-28-62.6-62.2-62.6zM804 213.4c-80.4 93.2-119.4 219.6-119.4 384 0 59.6-54.8 147.6-172.6 147.6s-172.6-88.2-172.6-147.6c0-164.4-39-290.8-119.4-384h584zM512 64.8c-38.6 0-70.4 31.8-70.4 70.4 0 4.4-3.4 7.8-7.8 7.8s-7.8-3.4-7.8-7.8c0-47.4 38.6-86 86-86 4.4 0 7.8 3.4 7.8 7.8s-3.4 7.8-7.8 7.8z" />
<glyph unicode="&#xe912;" glyph-name="share_com_position" d="M766.6 777c-140.6 140.6-368.6 140.6-509.2 0s-140.6-368.6 0-509.2c0 0 0 0 0 0v0l254.6-254.4 251.8 251.8c1 1 2 1.8 3 2.8 140.4 140.6 140.4 368.4-0.2 509zM384.8 649.8c70.2 70.2 184.2 70.2 254.6 0s70.2-184.2 0-254.6c-70.2-70.2-184.2-70.2-254.6 0s-70.4 184.4 0 254.6z" />
<glyph unicode="&#xe913;" glyph-name="share_com_star" d="M493.4 183l-209.6-110.2c-29.4-15.4-63.6 9.4-58 42.2l40 233.6c2.2 13-2 26.2-11.6 35.4l-169.6 165.4c-23.8 23.2-10.6 63.4 22.2 68.2l234.4 34c13 1.8 24.2 10 30.2 21.8l104.8 212.4c14.6 29.8 57 29.8 71.8 0l104.8-212.4c5.8-11.8 17-20 30.2-21.8l234.4-34c32.8-4.8 45.8-45 22.2-68.2l-169.6-165.4c-9.4-9.2-13.8-22.4-11.6-35.4l40-233.6c5.6-32.6-28.6-57.6-58-42.2l-209.6 110.2c-11.8 6-25.8 6-37.4 0z" />
<glyph unicode="&#xe914;" glyph-name="share_com_task" d="M162.8 820.4c-38 0-68.8-30.8-68.8-68.8 0-22.6 11.6-44 30.4-56.6v-596.4c0-13 10.2-23.2 23.2-23.2h30.4c13 0 23.2 10.2 23.2 23.2v596.4c18.8 12.6 30.4 34 30.4 56.6-0.2 38-31 68.8-68.8 68.8zM912.8 754l-0.2 0.2c-11 6.8-24.2 7.2-35.4 1.2l-0.4-0.2c-2.8-1.6-7.2-4.2-13.6-8l-0.4-0.2c-22.2-14.2-80.8-51.8-132.6-51.8-13.6 0-25.6 2.8-35.6 8.2-54.6 28.6-114 56.4-188.2 56.4-94.6 0-196.2-60.2-225-78.6l-0.2-0.2c-10.6-7.2-17.2-19.8-17.2-32.8v-352.2c0-13.6 6.6-26.2 17.8-33.2l0.6-0.4c5.8-3.2 12-4.8 18-4.8 6.6 0 13.4 2 19 5.6 50.6 33 138 68 200.6 68 52.6 0 87-18.6 130.4-42.2l12.4-6.6c21.6-11.6 46.4-17.6 73.6-17.6 68.8 0 136.4 38.6 165.2 55l2 1.2c2.8 1.8 5.4 3.2 7 4l0.2 0.2c11.8 6.6 19.6 20 19.6 34v362c-0.4 13.2-7 25.6-17.6 32.8zM857.4 656v-274c-48.2-27.2-88-40.4-121.4-40.4-15.4 0-29 3.2-40.8 9.4l-15 8c-47.2 25.2-91.8 48.8-160.6 48.8-50.4 0-118-18.2-183.2-48.8v267.2c61.2 35.6 124.6 56.8 170 56.8 60.2 0 110-24 156-48.4 19.6-10.8 42.4-16.2 67.8-16.2 38.4 0 81 12.6 127.2 37.6z" />
<glyph unicode="&#xe915;" glyph-name="share_com_user" d="M740.2 37.6h-456.4c-62.6 0-113.8 63.6-113.8 141.6 0 140.6 34.8 303 174.8 303 43.2-42.2 102-68.4 167.2-68.4s124 26.2 167.2 68.4c140 0 174.8-162.4 174.8-303 0-78-51.2-141.6-113.8-141.6zM512 448c-113.2 0-205.2 92-205.2 205.2s92 205.2 205.2 205.2 205.2-92 205.2-205.2-92-205.2-205.2-205.2z" />
<glyph unicode="&#xe916;" glyph-name="share_com_zoomin" d="M558.2 305l182.8-182.8-84.2-84.2h265.2v265.2l-84.2-84.2-182.8 182.8zM102 592.8l84.2 84.2 182.8-182.8 96.8 96.8-182.8 182.8 84.2 84.2h-265.2zM369 401.8l-182.8-182.8-84.2 84.2v-265.2h265.2l-84.2 84.2 182.8 182.8zM656.8 858l84.2-84.2-182.8-182.8 96.8-96.8 182.8 182.8 84.2-84.2v265.2z" />
<glyph unicode="&#xe917;" glyph-name="share_com_zoomout" d="M756.6 290.8l76.2 76.2h-239.8v-239.8l76.2 76.2 165.2-165.4 87.6 87.4zM191.2 529h239.8v239.8l-76.2-76.2-165.4 165.4-87.4-87.4 165.4-165.4zM756.6 605.2l165.4 165.2-87.4 87.6-165.4-165.4-76.2 76.2v-239.8h239.8zM267.4 290.8l-165.4-165.4 87.4-87.4 165.4 165.4 76.2-76.2v239.8h-239.8z" />
</font>
</defs>
</svg>
